# xmcd
#
# Track frame offsets:
#	150
#	13554
#	25215
#	39006
#	52020
#	66645
#	80667
#	93943
#	107218
#	120478
#
# Disc length: 1786 seconds
#
# Revision: 0
# Processed by: cddbd v1.5.2PL0 Copyright (c) Steve Scherf et al.
# Submitted via: EasyCDDAExtractor 16.0.6.1
#
DISCID=7c06f80a
DTITLE=Συλλογικός δίσκος - Ιστορία ρεμπέτικου και λαϊκού 01-2
DYEAR=2007
DGENRE=Ποικίλη
TTITLE0=Σωφρονίου Ευάγγελος - Κουκλάκι [Παν. Τούντα]
TTITLE1=Βιδάλης Γιώργος - Πολίτισσα Ταταυλιανή [Παν. Τούντα]
TTITLE2=Βιδάλης Γιώργος - Ο Μανώλης [Γ. Δραγάτση Ογδοντάκη]
TTITLE3=Διαμαντίδης Αντώνης ή Νταλγκάς - Μανές καληνυχτιάς [παραδοσιακό]
TTITLE4=Διαμαντίδης Αντώνης ή Νταλγκάς - Έσπασες τα πιάτα [Αντ. Διαμαντίδη]
TTITLE5=Ρούκουνας Κώστας ή Σαμιωτάκης - Το κουκλί της Κοκκινιάς [Παν. Τούντα]
TTITLE6=Καλλίνικος Δημήτρης ή Αραπάκης - Πασαλιμανιώτισσα [Παν. Τούντα]
TTITLE7=Σωφρονίου Ευάγγελος - Καλέ δεν με λυπάσαι [Α. Χατζηχρήστου/Σ. Παγιουμτ
TTITLE7=ζή-Στ. Σπιτάμπελου]
TTITLE8=Μαρσέλος Κώστας ή Νούρος - Πειραιώτισσα [Παν. Τούντα]
TTITLE9=Μαρσέλος Κώστας ή Νούρος - Δολοφόνισσα [Παν. Τούντα]
EXTD=
EXTT0=
EXTT1=
EXTT2=
EXTT3=
EXTT4=
EXTT5=
EXTT6=
EXTT7=
EXTT8=
EXTT9=
PLAYORDER=
